<?xml version="1.0" encoding="utf-8"?>
<!-- Generator: Adobe Illustrator 23.0.1, SVG Export Plug-In . SVG Version: 6.00 Build 0)  -->
<svg version="1.1" id="Capa_1" xmlns="http://www.w3.org/2000/svg" xmlns:xlink="http://www.w3.org/1999/xlink" x="0px" y="0px"
	 viewBox="0 0 512 512" style="enable-background:new 0 0 512 512;" xml:space="preserve">
<style type="text/css">
	.st0{fill:#C0C0C0;}
	.st1{fill:#FFEB99;}
	.st2{fill:#A0A0A0;}
	.st3{fill:#FFD580;}
	.st4{fill:#E2DFF4;}
	.st5{fill:#FFF5F5;}
	.st6{fill:#707070;}
	.st7{fill:#FFDA2D;}
	.st8{fill:#FDBF00;}
</style>
<g>
	<path class="st0" d="M416,60H96c-41.4,0-75,33.6-75,75v362c0,8.3,6.7,15,15,15h143.3l76.7-11l76.7,11H476c8.3,0,15-6.7,15-15V135
		C491,93.6,457.4,60,416,60z"/>
	<path class="st1" d="M315.2,160L256,120l-59.2,40l24,56.1h70.4L315.2,160z"/>
	<path class="st2" d="M491,497V135c0-41.4-33.6-75-75-75H256v441l76.7,11H476C484.3,512,491,505.3,491,497z"/>
	<path class="st0" d="M355.2,2.8c0.1-0.5-0.1-0.9-0.5-1.2c-2.1-1-4.4-1.6-6.7-1.6H164c-2.4,0-4.6,0.6-6.7,1.6
		c-0.7,0.4-1.2,1.1-1.1,1.9L163,97l93,23l76-36L355.2,2.8z"/>
	<path class="st2" d="M354.7,1.6c-2.1-1-4.4-1.6-6.7-1.6h-92v120l76-36l23.2-81.2C355.3,2.3,355.1,1.8,354.7,1.6L354.7,1.6z"/>
	<path class="st3" d="M291.2,216.1l24-56.1L256,120v96.1H291.2z"/>
	<path class="st4" d="M326.1,164.8l64.3-96.5c3.4-5,3.4-11.6,0-16.6l-30-45c-1.5-2.2-3.5-3.9-5.8-5.1L256,120l47.1,47.1
		C309.8,173.8,320.9,172.7,326.1,164.8L326.1,164.8z"/>
	<path class="st5" d="M151.5,6.7l-30,45c-3.4,5-3.4,11.6,0,16.6l64.3,96.5c5.3,7.9,16.4,9,23.1,2.3L256,120L157.3,1.6
		C155,2.7,153,4.5,151.5,6.7L151.5,6.7z"/>
	<path class="st6" d="M406,270h-60c-8.3,0-15-6.7-15-15s6.7-15,15-15h60c8.3,0,15,6.7,15,15S414.3,270,406,270z"/>
</g>
<path class="st7" d="M313.6,310.7c-0.8-3.5-2.7-5.9-4.8-5.9h-43.6l26.1-88.8c0.9-3.1-69.8-3.9-70.4,0l-22.5,134.5
	c-0.6,2.9-0.3,6.2,0.6,8.8c1.1,2.5,2.6,4.1,4.3,4.1H248l-28.5,122.9c-1.1,4.5-0.2,9.6,2,12.1c2.2,2.5,5.1,1.9,6.7-1.8l27.7-57.8
	l56.6-117.9C314,318.4,314.4,314.1,313.6,310.7z"/>
<path class="st8" d="M312.6,321.3L256,439.2V214.2c0,0,36.1-1.3,35.2,1.8l-26.1,89.1h43.6c2.1,0,4,2.3,4.8,5.9
	C314.4,314.3,314,318.6,312.6,321.3z"/>
</svg>
